<svg xmlns="http://www.w3.org/2000/svg" viewBox="0 0 500 500">
  <g
     id="logo">
    <path
       d="m 219.12773,382.97959 c -19.64024,-2.72818 -41.31815,-15.0817 -52.77688,-30.0758 -13.62206,-17.82488 -19.27033,-35.71116 -18.058,-57.184 1.23271,-21.83373 9.72297,-39.93704 25.9632,-55.35984 9.16902,-8.70751 18.53522,-14.31387 30.89336,-18.49195 16.55116,-5.59566 40.89991,-5.06229 55.54851,1.21684 2.60868,1.11821 5.43133,1.84485 6.27256,1.61476 0.84124,-0.23009 35.00619,-24.80092 75.92212,-54.60184 l 74.39261,-54.18349 9.95973,1.47853 c 5.47785,0.8132 10.12599,1.64479 10.32919,1.848 0.2032,0.2032 -30.10535,22.47536 -67.35234,49.4937 -37.24698,27.01833 -68.57491,49.76047 -69.61761,50.53808 -1.83795,1.37069 -1.80743,1.57148 1,6.57816 1.5927,2.84038 3.35175,4.99095 3.90901,4.77905 C 306.07044,230.41789 336.8895,208.30948 374,181.5 c 37.1105,-26.80948 67.94889,-48.92689 68.52977,-49.1498 0.9283,-0.35622 6.57388,42.53219 6.49549,49.34501 -0.0165,1.43792 -1.48996,3.20989 -4.27112,5.13656 l -4.24586,2.94135 -8.73416,-4.38656 C 426.97034,182.97395 422.66197,181 422.19998,181 c -0.46199,0 -2.76688,1.64936 -5.12199,3.66523 l -4.282,3.66524 0.64151,7.08476 0.6415,7.08477 -3.76229,2.1308 -3.7623,2.1308 -6.17133,-3.04323 -6.17134,-3.04322 -6.07672,4.41243 c -3.3422,2.42683 -6.08813,4.86242 -6.10207,5.41242 -0.0139,0.55 0.64994,5.05 1.47527,10 l 1.50061,9 -4.25442,3.7473 c -2.33992,2.06101 -4.70138,3.74851 -5.24768,3.75 -0.5463,0.001 -6.27344,-2.30918 -12.72699,-5.13482 l -11.73372,-5.13752 -5.77301,4.29806 c -3.17515,2.36393 -5.94909,4.4394 -6.1643,4.61214 -0.37181,0.29845 1.56815,14.19162 2.42472,17.36484 0.26272,0.97328 -2.2065,3.25574 -7.03187,6.5 -4.09023,2.75 -7.45136,5.40676 -7.46917,5.9039 -0.0178,0.49715 1.59469,3.8134 3.58335,7.36945 2.12107,3.79283 3.20656,6.72621 2.62589,7.0961 -0.54441,0.3468 -5.03178,3.48674 -9.97191,6.97764 l -8.98207,6.34708 -0.59218,11.15292 c -0.97834,18.42587 -6.24457,32.71087 -17.54325,47.58723 -10.23169,13.47152 -27.48252,24.76679 -44.2957,29.00337 -9.22952,2.32565 -24.03596,3.2494 -32.72879,2.0419 z m 26.7664,-13.13556 c 13.32056,-2.58222 26.15417,-9.91183 36.43278,-20.80769 22.89132,-24.266 25.81113,-60.00072 7.19107,-88.00929 -8.43806,-12.69266 -21.66952,-22.61497 -37.01798,-27.75989 -7.10423,-2.38139 -9.51161,-2.68166 -21.5,-2.68166 -11.98839,0 -14.39577,0.30027 -21.5,2.68166 -11.35677,3.80688 -19.84342,9.09084 -28.49271,17.74013 -8.69192,8.69191 -13.98065,17.21191 -17.68665,28.49271 -2.23589,6.80588 -2.64255,9.86581 -2.72441,20.5 -0.10973,14.25379 1.74575,22.0346 8.22716,34.5 4.75324,9.14168 18.15674,22.8268 27.17661,27.74761 15.96111,8.70763 31.75635,11.11246 49.89413,7.59642 z m -32.69242,-6.86619 c -21.72995,-5.6929 -39.21416,-23.33289 -44.86094,-45.26066 -1.93872,-7.52848 -2.1442,-22.20394 -0.41609,-29.71718 4.92983,-21.43321 22.72203,-40.0448 44.57532,-46.62812 9.44303,-2.84472 26.84265,-2.4241 36.23263,0.8759 17.17249,6.03506 29.35269,16.62688 37.10852,32.26931 4.28776,8.64784 6.15885,16.95021 6.15885,27.32803 0,11.85334 -1.32451,17.86285 -6.17674,28.02485 -4.93108,10.32714 -15.84069,21.8905 -25.92447,27.47798 -13.40482,7.42769 -31.50524,9.60991 -46.69708,5.62989 z m 6.03763,-26.34936 c 6.08186,-1.83037 11.27252,-5.94254 14.56021,-11.53496 C 236.08513,321.2057 236.5,319.34778 236.5,313 c 0,-6.39642 -0.4081,-8.19424 -2.77346,-12.2181 -3.47591,-5.91308 -10.06157,-10.51451 -17.06018,-11.92004 C 202.05079,285.92664 188,297.75793 188,313 c 0,10.54071 7.14606,20.40371 17,23.46342 5.82651,1.80917 8.66699,1.84209 14.23934,0.16506 z M 87.624765,378.53089 c -15.693646,-5.59398 -20.212258,-28.12476 -7.966348,-39.72194 9.153356,-8.66845 24.549873,-9.12363 33.568663,-0.9924 5.53418,4.98955 7.729,10.15312 7.729,18.18345 0,10.42315 -5.24051,18.72329 -14.17396,22.44932 -4.55773,1.90097 -13.941027,1.94093 -19.157355,0.0816 z M 79.182158,204.75 C 77.382957,155.6625 75.930935,114.9375 75.955442,114.25 75.989623,113.2911 80.890431,113 97,113 h 21 l 0.017,3.75 c 0.0308,6.78605 -6.0335,162.5838 -6.61712,170 L 110.82933,294 H 96.641366 82.453401 l -3.271273,-89.25 z"
       id="path1580" />
  </g>
</svg>
